<svg xmlns="http://www.w3.org/2000/svg" viewBox="0 0 200 40">
  <g fill="#181a1b" stroke-width="2.787">
    <path d="m20.21333245 28.3439775-18.5649119-7.723134v-4.833081l18.5649119-7.706807v5.796433l-11.2826333 4.343242 11.2826333 4.359571Zm3.771764-22.1080832h6.645487v8.8171082q1.355222-1.404206 2.694117-2.008341 1.338894-.604135 3.167628-.604135 2.710444 0 4.261602 1.649126 1.567486 1.649126 1.567486 5.061673v11.021386h-6.678143v-9.53554q0-1.632798-.604135-2.302245-.604136-.685775-1.69811-.685775-1.208271 0-1.959358.914367-.751087.914367-.751087 3.281924v8.327269h-6.645487zm30.321057 0v6.5965032h3.657468v4.84941h-3.657468v6.155648q0 1.110303.212264 1.469518.32656.555152 1.142959.555152.734759 0 2.057325-.424528l.489839 4.588162q-2.465524.538824-4.60449.538824-2.481853 0-3.657467-.636792-1.175615-.636791-1.747094-1.926701-.555151-1.306238-.555151-4.212619v-6.106664h-2.449197v-4.84941h2.449197v-3.183956zm6.874079 6.5965032h6.204632v2.530837q1.338894-1.583814 2.694117-2.253261 1.37155-.669447 3.298252-.669447 2.073653 0 3.281923.734759 1.208271.734759 1.975686 2.187949 1.567486-1.69811 2.857396-2.302245 1.28991-.620463 3.183956-.620463 2.792084 0 4.35957 1.665454 1.567486 1.649126 1.567486 5.175969v10.890762h-6.661815v-9.878427q0-1.175615-.457183-1.747094-.669448-.898039-1.665454-.898039-1.175615 0-1.894046.849055-.718431.849055-.718431 2.726773v8.947732h-6.661815v-9.551868q0-1.142958-.130624-1.551158-.212264-.653119-.734759-1.04499-.522496-.4082-1.224599-.4082-1.142958 0-1.877717.865383-.734759.865383-.734759 2.841068v8.849765h-6.661816zm31.888547 0h7.88641l2.75943 4.833082 3.20029-4.833082h7.33126l-5.91073 8.261958 6.33526 9.078356h-7.75579l-3.20029-5.584169-3.771761 5.584169h-7.200639l6.3026-9.078356z"/>
    <path fill="#4d93da" d="m121.18170945 6.2474225-5.97657 23.924318h4.1373l6.00976-23.924318Z" font-weight="700"/>
    <path d="M126.39417945 6.2358943h6.66182v23.9368172h-6.66182zm9.73148 19.1363912 6.5965-.620463q.4082 1.175615 1.14296 1.681782t1.95936.506167q1.33889 0 2.07365-.571479.57148-.424528.57148-1.061319 0-.718431-.75109-1.110302-.53882-.277576-2.8574-.685775-3.46153-.604136-4.81675-1.110303-1.33889-.522495-2.26959-1.747094-.91437-1.224598-.91437-2.792084 0-1.714438.99601-2.955364.99601-1.240927 2.7431-1.845062 1.7471-.620463 4.68613-.620463 3.10232 0 4.57184.473511 1.48584.473512 2.46552 1.469518.99601.996007 1.64913 2.694117l-6.3026.620463q-.24492-.832727-.8164-1.224598-.78374-.522496-1.89405-.522496-1.12663 0-1.64912.4082-.50617.391871-.50617.963351 0 .636791.65312.96335.65312.32656 2.84107.587808 3.31458.375543 4.93105 1.04499 1.61647.669447 2.46552 1.910374.86538 1.240926.86538 2.726772 0 1.502174-.91436 2.922709-.89804 1.420534-2.8574 2.269589-1.94303.832727-5.30659.832727-4.75144 0-6.77611-1.355223-2.00834-1.355222-2.57982-3.853403zm21.63457 11.39693v-23.936818h6.22096v2.563493q1.28991-1.61647 2.36755-2.187949 1.45319-.767415 3.21662-.767415 3.47785 0 5.3719 2.66146 1.91037 2.661461 1.91037 6.580176 0 4.326914-2.07365 6.612831-2.07365 2.26959-5.24128 2.26959-1.53483 0-2.80841-.522496-1.25726-.522495-2.25326-1.551158v8.278286zm6.66181-15.217677q0 2.057325.86538 3.053332.86539.996007 2.18795.996007 1.15929 0 1.94303-.947023.78375-.963351.78375-3.249268 0-2.106309-.8164-3.085988-.8164-.996006-1.99202-.996006-1.27358 0-2.12263.996006-.84906.996007-.84906 3.23294zm15.36463 6.792439 18.56491-7.723134v-4.833081l-18.56491-7.706807v5.796433l11.28263 4.343242-11.28263 4.359571z"/>
  </g>
</svg>
