<svg xmlns="http://www.w3.org/2000/svg" viewBox="0 0 200 40">
  <g fill="#fff" stroke-width="2.787">
    <path d="M20.213 30.861 1.648 23.138v-4.833l18.565-7.707v5.797L8.931 20.738l11.282 4.36Zm3.772-22.108h6.646v8.817q1.355-1.404 2.694-2.008 1.339-.604 3.167-.604 2.71 0 4.262 1.65 1.567 1.648 1.567 5.06V32.69h-6.678v-9.535q0-1.633-.604-2.303-.604-.685-1.698-.685-1.208 0-1.96.914-.75.914-.75 3.282v8.327h-6.646zm30.321 0v6.597h3.658v4.85h-3.658v6.155q0 1.11.212 1.47.327.555 1.143.555.735 0 2.058-.425l.49 4.588q-2.466.539-4.605.539-2.482 0-3.657-.637-1.176-.637-1.748-1.927-.555-1.306-.555-4.212v-6.107h-2.449v-4.85h2.45v-3.183zm6.874 6.597h6.205v2.53q1.339-1.583 2.694-2.253 1.372-.67 3.298-.67 2.074 0 3.282.736 1.208.734 1.976 2.188 1.567-1.698 2.857-2.303 1.29-.62 3.184-.62 2.792 0 4.36 1.665 1.567 1.65 1.567 5.176V32.69h-6.662v-9.878q0-1.176-.457-1.747-.67-.898-1.665-.898-1.176 0-1.894.849-.719.849-.719 2.726v8.948h-6.661v-9.552q0-1.143-.131-1.55-.212-.654-.735-1.046-.522-.408-1.224-.408-1.143 0-1.878.865-.735.866-.735 2.841v8.85H61.18zm31.889 0h7.886l2.76 4.833 3.2-4.833h7.331l-5.91 8.262 6.335 9.078h-7.756l-3.2-5.584-3.772 5.584h-7.2l6.302-9.078z"/>
    <path fill="#4d93da" d="M120.859 8.345h3.396l-6.008 24.737h-3.364z"/>
    <path d="M126.394 8.753h6.662V32.69h-6.662zm9.732 19.137 6.596-.62q.408 1.175 1.143 1.681.735.506 1.96.506 1.338 0 2.073-.571.572-.425.572-1.062 0-.718-.751-1.11-.54-.278-2.858-.686-3.461-.604-4.817-1.11-1.339-.523-2.27-1.747-.914-1.225-.914-2.792 0-1.715.996-2.956.996-1.24 2.744-1.845 1.747-.62 4.686-.62 3.102 0 4.571.473 1.486.474 2.466 1.47.996.996 1.65 2.694l-6.303.62q-.245-.832-.817-1.224-.784-.523-1.894-.523-1.127 0-1.649.409-.506.392-.506.963 0 .637.653.963.653.327 2.841.588 3.315.376 4.931 1.045 1.617.67 2.466 1.91.865 1.241.865 2.727 0 1.502-.914 2.923-.898 1.42-2.858 2.27-1.943.832-5.306.832-4.752 0-6.777-1.355-2.008-1.355-2.58-3.853zm21.634 11.397V15.35h6.221v2.563q1.29-1.616 2.368-2.188 1.453-.767 3.216-.767 3.478 0 5.372 2.661 1.91 2.662 1.91 6.58 0 4.327-2.073 6.613-2.074 2.27-5.241 2.27-1.535 0-2.809-.523-1.257-.522-2.253-1.55v8.278zm6.662-15.218q0 2.057.865 3.053.866.996 2.188.996 1.16 0 1.943-.947.784-.963.784-3.249 0-2.106-.816-3.086-.817-.996-1.992-.996-1.274 0-2.123.996-.849.996-.849 3.233zm15.365 6.792 18.565-7.723v-4.833l-18.565-7.707v5.797l11.282 4.343-11.282 4.36z"/>
  </g>
</svg>
