<svg xmlns="http://www.w3.org/2000/svg" viewBox="0 0 72 20">
  <g fill="#181a1b">
    <path d="M7.29 14.344.626 11.572V9.838l6.662-2.766v2.08L3.24 10.711l4.05 1.564zM8.643 6.41h2.384v3.164q.487-.504.967-.72.48-.217 1.137-.217.973 0 1.53.592.562.591.562 1.816V15h-2.397v-3.422q0-.586-.217-.826-.216-.246-.609-.246-.434 0-.703.328-.27.328-.27 1.178V15H8.643Zm10.88 0v2.367h1.313v1.74h-1.313v2.21q0 .398.077.527.117.2.41.2.263 0 .738-.153l.176 1.646q-.885.194-1.653.194-.89 0-1.312-.229-.422-.228-.627-.691-.2-.469-.2-1.512v-2.191h-.878v-1.74h.879V7.634Zm2.467 2.367h2.227v.909q.48-.569.967-.809.492-.24 1.183-.24.744 0 1.178.263.434.264.709.786.562-.61 1.025-.827.463-.222 1.143-.222 1.002 0 1.564.597.563.592.563 1.858V15h-2.39v-3.545q0-.422-.165-.627-.24-.322-.598-.322-.421 0-.68.305-.257.304-.257.978V15h-2.39v-3.428q0-.41-.048-.556-.076-.235-.263-.375-.188-.147-.44-.147-.41 0-.673.31-.264.311-.264 1.02V15h-2.39zm11.444 0h2.83l.99 1.735 1.148-1.735h2.631l-2.12 2.965L41.185 15h-2.784l-1.148-2.004L35.9 15h-2.584l2.262-3.258z"/>
    <path fill="#4d93da" d="M43.406 6.264h1.219l-2.156 8.877h-1.207z"/>
    <path d="M45.393 6.41h2.39V15h-2.39zm3.492 6.867 2.367-.222q.146.422.41.603.264.182.703.182.48 0 .744-.205.205-.153.205-.381 0-.258-.27-.399-.192-.1-1.024-.246-1.243-.216-1.729-.398-.48-.188-.814-.627-.329-.44-.329-1.002 0-.615.358-1.06.357-.446.984-.663.627-.222 1.682-.222 1.113 0 1.64.17.534.17.885.527.358.357.592.967l-2.262.222q-.088-.298-.293-.439-.28-.188-.68-.188-.404 0-.591.147-.182.14-.182.346 0 .228.235.345.234.118 1.02.211 1.189.135 1.769.375.58.24.884.686.311.445.311.978 0 .54-.328 1.05-.322.509-1.026.814-.697.298-1.904.298-1.705 0-2.431-.486-.721-.486-.926-1.383zm7.763 4.09v-8.59h2.233v.92q.463-.58.85-.785.521-.275 1.154-.275 1.248 0 1.928.955.685.955.685 2.361 0 1.553-.744 2.373-.744.815-1.881.815-.55 0-1.008-.188-.45-.187-.808-.557v2.971zm2.391-5.46q0 .738.31 1.095.311.357.786.357.416 0 .697-.34.281-.345.281-1.165 0-.756-.293-1.108-.293-.357-.715-.357-.457 0-.761.357-.305.358-.305 1.16zm5.514 2.437 6.662-2.772V9.838l-6.662-2.766v2.08l4.049 1.559-4.05 1.564z"/>
  </g>
</svg>
